<?xml version="1.0" encoding="utf-8"?>
<svg xmlns="http://www.w3.org/2000/svg" viewBox="0 0 900 280" width="900" height="280" xmlns:bx="https://boxy-svg.com"><g transform="matrix(0.66667, 0, 0, 0.66667, -57.251862, 135.548981)"><path fill="#07C0FC" d="M 298.219 -114.1 C 299.402 -114.89 300.585 -115.68 302.249 -116.8 C 305.484 -118.62 308.303 -120.01 310.979 -121.64 C 331.343 -134.02 351.678 -146.44 372.022 -158.85 C 375.106 -160.91 378.19 -162.97 381.948 -165.12 C 385.475 -167.31 388.168 -167.11 391.072 -165.07 C 393.33 -163.48 395.912 -162.36 398.35 -161.03 C 400.246 -159.75 402.142 -158.47 404.594 -156.91 C 408.679 -154.46 412.124 -152.14 415.764 -150.18 C 418.263 -148.84 419.237 -147.19 419.148 -144.29 C 418.965 -138.34 419.21 -132.38 419.278 -126.43 C 419.229 -123.81 418.846 -121.16 419.202 -118.6 C 419.93 -113.36 417.881 -110 412.612 -107.7 C 407.683 -104.7 403.266 -102.07 398.848 -99.43 C 395.798 -97.658 392.748 -95.883 389.147 -93.752 C 384.619 -90.926 380.642 -88.456 376.665 -85.985 C 374.435 -84.664 372.204 -83.342 369.419 -81.677 C 357.148 -74.285 345.433 -67.236 332.859 -59.67 C 337.279 -57.315 340.515 -55.592 343.751 -53.868 C 347.357 -51.607 350.963 -49.346 355.105 -46.753 C 357.064 -45.705 358.487 -44.989 359.909 -44.273 C 359.909 -44.273 359.908 -44.267 360.09 -43.985 C 364.127 -41.501 367.982 -39.301 371.837 -37.1 C 374.934 -35.141 378.032 -33.183 381.683 -30.846 C 383.452 -28.932 385.661 -27.431 385.717 -25.855 C 386.016 -17.326 385.782 -8.779 385.384 -0.291 C 373.336 -6.994 361.634 -13.644 349.928 -20.681 C 348.826 -23.389 348.139 -26.046 346.558 -27.968 C 340.747 -35.034 334.634 -41.851 328.652 -48.776 C 328.112 -49.401 327.537 -50.073 327.252 -50.827 C 323.375 -61.079 315.465 -68.137 307.737 -75.283 C 305.498 -77.353 305.432 -78.645 307.899 -80.295 C 308.651 -80.799 309.193 -81.619 309.81 -82.271 C 305.244 -87.49 301.169 -92.743 296.444 -97.329 C 293.557 -100.13 293.674 -102.43 295.031 -105.71 C 295.8 -107.57 295.491 -109.87 295.858 -112.18 C 296.772 -112.95 297.496 -113.53 298.219 -114.1 Z"/><path fill="#061121" d="M 605.02 -66.218 C 622.275 -66.349 639.53 -66.481 656.785 -66.609 C 659.275 -66.628 661.766 -66.625 665.014 -66.593 C 668.741 -66.243 671.711 -65.931 674.681 -65.62 C 677.532 -64.567 680.383 -63.514 683.797 -62.181 C 685.52 -61.348 686.679 -60.794 687.838 -60.239 C 688.631 -59.559 689.424 -58.878 690.655 -57.794 C 697.596 -51.392 700.334 -43.849 700.22 -35.135 C 700.074 -24.024 694.302 -16.465 683.827 -11.179 C 693.196 -8.19 699.511 -3.213 703.093 4.855 C 703.459 6.313 703.824 7.77 704.344 9.99 C 706.685 26.246 700.418 37.366 686.91 44.74 C 686.099 45.028 685.288 45.316 683.873 45.756 C 682.48 46.262 681.69 46.615 680.9 46.968 C 679.784 47.204 678.669 47.441 676.871 47.773 C 674.759 48.207 673.33 48.546 671.901 48.886 C 650.549 48.942 629.197 48.998 606.977 49.003 C 605.763 47.461 605.127 45.972 605.118 44.478 C 605.038 31.506 605.099 18.533 605.061 5.56 C 604.997 -16.052 604.89 -37.663 604.914 -59.691 C 604.958 -61.826 604.888 -63.544 604.922 -65.489 C 605.024 -65.884 605.022 -66.051 605.02 -66.218 M 681.306 20.409 C 684.456 8.94 679.736 0.828 668.039 -0.212 C 656.803 -1.21 645.438 -0.752 634.129 -0.918 C 631.715 -0.954 629.3 -0.923 626.881 -0.923 C 626.881 9.748 626.881 19.644 626.881 29.835 C 628.326 29.835 629.466 29.837 630.605 29.835 C 642.261 29.813 653.928 30.076 665.57 29.656 C 671.87 29.43 677.67 27.225 681.306 20.409 M 649.4 -19.612 C 655.034 -19.832 660.724 -19.63 666.287 -20.375 C 673.674 -21.365 678.304 -26.802 678.325 -33.444 C 678.346 -40.197 673.865 -45.992 666.324 -46.382 C 653.285 -47.055 640.185 -46.569 626.834 -46.569 C 626.834 -37.777 626.834 -28.89 626.834 -20.112 C 627.368 -19.854 627.659 -19.592 627.95 -19.591 C 634.768 -19.581 641.585 -19.599 649.4 -19.612 Z"/><path fill="#FC8807" d="M 420.893 99.666 C 435.667 90.392 450.441 81.118 465.8 71.98 C 465.709 73.443 465.033 74.771 463.995 76.812 C 465.937 77.766 467.84 78.941 469.901 79.669 C 475.763 81.739 482.567 82.41 487.377 85.882 C 494.05 90.698 499.092 90.007 505.168 85.706 C 510.199 82.145 515.691 79.234 522.135 75.336 C 515.623 71.873 510.307 69.241 505.187 66.27 C 500.039 63.282 495.086 59.957 490.048 56.779 C 490.06 50.078 490.073 43.376 490.556 36.208 C 492.693 36.17 494.575 36.239 495.987 37.089 C 501.345 40.313 506.499 43.873 511.83 47.144 C 516.181 49.814 520.308 49.187 524.104 46.172 C 524.178 67.707 524.165 88.777 524.153 109.848 C 523.441 110.234 522.729 110.62 521.564 111.389 C 516.459 114.124 511.807 116.476 506.804 118.684 C 502.391 116.872 498.365 115.756 495.2 111.88 C 490.355 105.947 475.136 104.723 468.711 108.774 C 461.561 113.281 454.247 117.526 447.079 122.003 C 436.85 128.392 434.366 128.375 425.051 121.472 C 424.521 121.079 423.826 120.888 423.349 120.449 C 419.904 117.281 416.495 114.073 413.077 110.876 C 412.313 110.162 411.555 109.439 410.677 108.371 C 410.435 107.547 410.312 107.073 410.188 106.599 C 410.188 106.599 410.498 106.662 410.923 106.522 C 411.498 105.997 411.648 105.612 411.797 105.227 C 411.88 104.938 412.067 104.753 412.947 104.687 C 415.988 103.023 418.441 101.345 420.893 99.666 Z"/><path fill="#061121" d="M 787.81 -52.274 C 787.746 -50.221 787.683 -48.169 787.619 -45.241 C 787.618 -41.432 787.618 -38.498 787.618 -35.06 C 796.238 -35.06 804.294 -35.06 812.161 -35.06 C 812.161 -28.808 812.161 -23.096 812.161 -17.144 C 804.733 -17.144 797.746 -17.135 790.759 -17.151 C 788.8 -17.155 786.829 -17.249 787.809 -14.274 C 787.781 -2.305 787.564 9.668 787.802 21.632 C 787.928 27.967 791.343 31.164 797.705 30.88 C 802.268 30.676 806.781 29.37 812.164 28.404 C 813.058 33.128 814.148 38.549 815.026 44.005 C 815.123 44.605 814.159 45.707 813.435 46.057 C 803.805 50.712 785.154 53.147 774.224 43.17 C 769.448 38.393 767.542 32.95 766.99 27.041 C 766.62 23.077 766.71 19.065 766.697 15.074 C 766.664 4.487 766.686 -6.101 766.686 -17.28 C 761.897 -17.28 757.684 -17.28 753.121 -17.28 C 753.121 -23.359 753.121 -28.836 753.121 -34.313 C 756.158 -34.633 759.206 -34.88 762.228 -35.304 C 763.697 -35.511 765.12 -36.049 766.613 -37.297 C 766.723 -44.529 766.785 -50.9 766.846 -57.271 C 767.407 -57.323 767.969 -57.374 769.238 -57.421 C 773.891 -57.496 777.836 -57.576 781.78 -57.655 C 783.485 -57.538 785.189 -57.421 787.212 -56.816 C 787.624 -54.976 787.717 -53.625 787.81 -52.274 Z"/><path fill="#FC7208" d="M 891.883 -3.191 C 897.162 1.842 902.441 6.874 908.269 12.43 C 911.038 8.193 913.464 4.112 916.301 0.341 C 917.288 -0.972 919.243 -2.172 920.841 -2.294 C 925.453 -2.643 930.109 -2.417 936.285 -2.417 C 930.959 7.096 926.086 15.8 921.001 24.882 C 927.917 32.342 935.084 40.074 943.224 48.856 C 934.63 48.856 927.545 48.958 920.47 48.761 C 919.205 48.726 917.734 47.684 916.775 46.7 C 913.755 43.604 910.933 40.314 907.806 36.845 C 905.643 38.38 904.239 39.464 902.751 40.417 C 885.026 51.77 866.383 54.082 847.315 44.593 C 828.229 35.095 825.895 10.084 842.516 -3.219 C 845.985 -5.996 850.078 -7.995 854.535 -10.205 C 854.518 -8.507 853.951 -6.901 853.155 -5.418 C 852.188 -3.617 850.098 -1.841 850.237 -0.201 C 850.355 1.199 852.941 2.387 854.427 3.678 C 855.305 4.44 856.168 5.221 857.025 6.342 C 856.208 7.725 855.376 8.739 854.603 9.797 C 849.927 16.2 851.5 24.694 858.141 28.964 C 868.455 35.597 884.783 33.581 894.551 23.375 C 890.439 19.83 886.296 16.259 882.54 12.703 C 887.772 11.422 892.617 10.125 898.174 8.637 C 895.215 6.984 891.92 6.223 890.963 4.299 C 890.028 2.421 891.479 -0.646 891.883 -3.191 Z"/><path fill="#FC7208" d="M 410.795 108.721 C 411.555 109.439 412.313 110.162 413.077 110.876 C 416.495 114.073 419.904 117.281 423.349 120.449 C 423.826 120.888 424.521 121.079 425.051 121.472 C 434.366 128.375 436.85 128.392 447.079 122.003 C 454.247 117.526 461.561 113.281 468.711 108.774 C 475.136 104.723 490.355 105.947 495.2 111.88 C 498.365 115.756 502.391 116.872 506.637 118.991 C 505.683 120.388 504.637 121.483 503.391 122.255 C 487.79 131.926 472.136 141.511 456.545 151.198 C 443.544 159.275 430.607 167.456 417.642 175.59 C 415.921 176.471 414.239 177.451 412.45 178.16 C 412.016 178.332 411.229 177.613 410.611 176.6 C 410.677 153.504 410.736 131.112 410.795 108.721 Z"/><path fill="#0843A4" d="M 275.15 127.112 C 274.693 126.767 274.235 126.422 273.293 125.782 C 266.172 121.638 259.535 117.79 252.898 113.941 C 251.024 112.682 249.15 111.423 246.996 109.506 C 246.811 95.813 246.906 82.777 247.39 69.84 C 248.394 74.781 249.009 79.624 249.627 84.485 C 259.752 82.488 260.905 81.155 260.902 71.828 C 260.901 69.678 260.742 67.51 260.983 65.388 C 261.087 64.477 262.026 63.661 262.682 63.257 C 262.772 72.692 263.29 81.712 262.61 90.642 C 261.952 99.281 264.334 104.416 272.598 108.876 C 288.51 117.463 303.419 127.907 318.776 137.531 C 321.931 139.508 325.221 141.268 328.698 143.271 C 329.967 132.804 330.014 132.731 322.192 127.733 C 307.201 118.154 292.121 108.714 277.173 99.068 C 275.749 98.149 274.124 96.209 274.083 94.703 C 273.857 86.402 274.095 78.089 274.524 69.878 C 275.418 71.609 275.961 73.241 276.626 75.242 C 277.471 75.533 278.73 75.854 279.892 76.387 C 285.823 79.109 286.737 78.421 286.982 71.813 C 287.082 69.118 288.017 66.455 288.662 64.234 C 288.766 72.017 289.086 79.36 288.683 86.662 C 288.437 91.13 290.185 93.567 293.794 95.813 C 308.066 104.692 322.149 113.876 336.377 122.828 C 339.056 124.514 340.086 126.427 340.056 129.69 C 339.951 141.331 340.237 152.976 340.376 164.62 C 339.001 164.382 337.626 164.145 335.734 163.578 C 332.462 161.708 329.706 160.169 326.95 158.629 C 326.543 158.303 326.137 157.977 325.262 157.34 C 318.918 153.556 313.043 150.084 307.167 146.612 C 305.725 145.645 304.282 144.677 302.315 143.369 C 292.91 137.724 284.03 132.418 275.15 127.112 Z"/><path fill="#FC8807" d="M 857.037 5.994 C 856.168 5.221 855.305 4.44 854.427 3.678 C 852.941 2.387 850.355 1.199 850.237 -0.201 C 850.098 -1.841 852.188 -3.617 853.155 -5.418 C 853.951 -6.901 854.518 -8.507 854.881 -10.259 C 855.321 -11.027 856.068 -11.595 856.95 -12.266 C 854.553 -15.78 852.199 -19.23 849.487 -23.257 C 841.981 -39.03 847.49 -53.391 863.892 -62.317 C 871.265 -63.004 878.639 -63.692 886.766 -64.205 C 889.329 -63.611 891.138 -63.192 892.946 -62.774 C 895.653 -61.309 898.359 -59.844 901.58 -58.005 C 904.174 -55.464 906.252 -53.297 908.331 -51.129 C 908.922 -49.283 909.512 -47.437 910.466 -45.029 C 911.142 -43.39 911.455 -42.313 911.768 -41.237 C 911.799 -39.528 911.829 -37.819 911.821 -35.341 C 911.402 -32.851 911.022 -31.13 910.643 -29.41 C 906.92 -18.592 898.325 -12.705 888.47 -7.211 C 889.064 -5.832 889.954 -5.037 890.845 -4.243 C 891.131 -4.056 891.416 -3.869 891.792 -3.436 C 891.479 -0.646 890.028 2.421 890.963 4.299 C 891.92 6.223 895.215 6.984 898.174 8.637 C 892.617 10.125 887.772 11.422 882.233 12.552 C 878.105 9.062 874.541 5.859 871.287 2.368 C 869.458 0.406 867.919 0.346 865.736 1.6 C 862.923 3.216 859.944 4.543 857.037 5.994 M 889.426 -27.451 C 894.832 -32.127 894.743 -40.832 889.246 -45.145 C 884.217 -49.092 874.444 -49.048 869.594 -45.058 C 865.3 -41.526 864.675 -35.363 867.935 -28.594 C 868.222 -27.998 868.592 -27.442 868.903 -26.856 C 872.829 -19.471 875.109 -18.677 882.281 -22.545 C 884.598 -23.795 886.679 -25.481 889.426 -27.451 Z"/><path fill="#05A9F7" d="M 1056.89 -45.233 C 1056.95 -44.032 1057 -42.831 1057.33 -41.153 C 1057.6 -40.676 1057.46 -40.238 1057.08 -40.243 C 1055.72 -40.188 1054.45 -40.502 1053.79 -40.008 C 1049.83 -37.037 1047.72 -38.826 1045.63 -42.463 C 1044.87 -43.789 1042.82 -44.593 1041.19 -45.156 C 1038.13 -46.212 1035 -47.248 1031.82 -47.676 C 1028.83 -48.079 1025.31 -51.681 1022.3 -46.856 C 1009.56 -46.9 997.279 -46.9 984.129 -46.9 C 984.129 -42.203 984.129 -37.733 983.764 -33.29 C 981.446 -32.994 979.379 -32.972 977.558 -32.29 C 972.608 -30.436 967.762 -28.303 962.875 -26.281 C 962.875 -39.512 962.875 -52.742 962.875 -66.564 C 964.897 -66.564 966.667 -66.564 968.437 -66.564 C 985.869 -66.563 1003.3 -66.483 1020.73 -66.592 C 1030.29 -66.653 1039.12 -64.428 1047.65 -58.751 C 1049.63 -55.473 1054.59 -54.296 1052.78 -50.472 C 1054.35 -48.474 1055.62 -46.853 1056.89 -45.233 Z"/><path fill="#05A9F7" d="M 295.668 -111.97 C 295.491 -109.87 295.8 -107.57 295.031 -105.71 C 293.674 -102.43 293.557 -100.13 296.444 -97.329 C 301.169 -92.743 305.244 -87.49 309.81 -82.271 C 309.193 -81.619 308.651 -80.799 307.899 -80.295 C 305.432 -78.645 305.498 -77.353 307.737 -75.283 C 315.465 -68.137 323.375 -61.079 327.252 -50.827 C 327.537 -50.073 328.112 -49.401 328.652 -48.776 C 334.634 -41.851 340.747 -35.034 346.558 -27.968 C 348.139 -26.046 348.826 -23.389 349.607 -20.806 C 337.87 -27.553 326.5 -34.648 315.003 -41.534 C 309.773 -44.667 304.294 -47.385 298.729 -50.56 C 295.32 -52.972 292.11 -55.115 288.904 -57.69 C 289.269 -65.514 284.599 -71.135 282.243 -77.584 C 279.992 -83.747 272.053 -88.69 277.473 -96.89 C 277.833 -97.435 276.466 -99.12 275.903 -100.28 C 278.478 -101.71 281.053 -103.14 284.077 -105.08 C 288.24 -107.71 291.954 -109.84 295.668 -111.97 Z"/><path fill="#061121" d="M 722.918 -35.451 C 727.068 -35.406 731.218 -35.361 736.194 -35.306 C 738.31 -35.201 739.602 -35.105 741.19 -34.987 C 741.19 -24.686 741.147 -14.592 741.2 -4.499 C 741.278 10.238 741.426 24.974 741.411 40.101 C 741.351 41.58 741.424 42.667 741.363 44.143 C 741.14 45.933 741.052 47.335 740.959 48.799 C 738.041 48.936 735.462 49.057 732.884 49.178 C 728.573 48.754 724.263 48.33 719.945 47.091 C 719.857 42.734 719.775 39.191 719.759 35.423 C 719.824 35.197 719.696 34.745 719.792 34.337 C 719.868 11.195 719.848 -11.538 719.828 -34.272 C 719.828 -34.272 720.069 -34.579 720.412 -34.832 C 721.476 -35.207 722.197 -35.329 722.918 -35.451 Z"/><path fill="#075BC6" d="M 1036.26 47.813 C 1035.34 47.921 1034.42 48.03 1032.83 48.271 C 1031.42 48.566 1030.69 48.729 1029.96 48.892 C 1007.82 48.927 985.678 48.962 963.028 48.644 C 962.517 48.292 962.242 47.882 962.242 47.882 C 962.376 41.471 962.509 35.06 963.131 28.183 C 968.322 25.444 973.202 23.46 977.636 20.746 C 979.247 19.761 979.792 17.034 980.824 15.102 C 982.014 16.987 983.204 18.873 984.409 21.156 C 984.31 22.598 984.195 23.643 983.828 24.828 C 983.915 26.568 984.254 28.168 985.08 29.807 C 996.024 29.898 1006.48 29.949 1017.09 30.18 C 1017.79 30.242 1018.34 30.126 1019.33 29.937 C 1025.37 28.431 1030.96 26.997 1036.9 25.709 C 1040.67 27.27 1044.1 28.683 1047.53 30.099 C 1050.7 31.408 1053.87 32.72 1057.04 34.03 C 1053.35 37.367 1049.9 41.036 1045.89 43.916 C 1043.42 45.689 1040.08 46.256 1036.85 47.528 C 1036.56 47.69 1036.26 47.813 1036.26 47.813 Z"/><path fill="#0473DB" d="M 1238.01 20.735 C 1234.03 8.404 1235.46 -3.466 1241.65 -15.012 C 1243.83 -11.569 1245.44 -8.1 1247.02 -4.617 C 1248.17 -2.072 1249.44 -0.3 1252.62 -2.344 C 1254.05 -3.267 1255.92 -3.503 1257.59 -3.742 C 1257.4 -2.841 1257.22 -2.25 1257.04 -1.451 C 1257.33 -1.194 1257.61 -1.145 1258.37 -1.128 C 1271.55 -1.09 1284.27 -1.019 1297.13 -0.78 C 1297.8 -0.723 1298.32 -0.835 1299.2 -1.039 C 1300.14 -1.509 1300.73 -1.887 1301.68 -2.266 C 1303.38 -2.773 1304.71 -3.329 1306.07 -3.778 C 1310.65 -5.294 1315.25 -6.772 1319.9 -7.863 C 1320.61 -5.065 1321.26 -2.669 1321.9 -0.272 C 1321.9 -0.272 1321.91 -0.265 1321.85 0.177 C 1321.87 2.991 1321.96 5.364 1322.04 7.737 C 1321.89 9.205 1321.73 10.673 1321.5 12.907 C 1316.65 12.907 1311.75 12.907 1305.95 12.896 C 1303 12.941 1300.95 12.996 1298.89 13.051 C 1289.88 13 1280.86 12.948 1270.93 12.884 C 1265.72 12.872 1261.44 12.872 1257.01 12.872 C 1257.01 14.435 1257.01 15.584 1256.72 16.933 C 1253.3 22.233 1244.23 24.006 1238.01 20.735 Z"/><path fill="#0290F3" d="M 1319.85 -8.265 C 1315.25 -6.772 1310.65 -5.294 1306.07 -3.778 C 1304.71 -3.329 1303.38 -2.773 1301.52 -2.623 C 1298.15 -14.03 1293.53 -18.399 1283.38 -19.657 C 1271.49 -21.13 1263.62 -16.37 1257.6 -4.051 C 1255.92 -3.503 1254.05 -3.267 1252.62 -2.344 C 1249.44 -0.3 1248.17 -2.072 1247.02 -4.617 C 1245.44 -8.1 1243.83 -11.569 1241.93 -15.227 C 1243.17 -17.71 1244.72 -20.01 1246.67 -22.763 C 1247.63 -23.913 1248.21 -24.61 1248.78 -25.307 C 1249.41 -25.777 1250.04 -26.246 1250.79 -26.988 C 1258.85 -34.637 1268.8 -36.368 1279.89 -37.265 C 1283.79 -37.012 1286.86 -36.766 1289.92 -36.52 C 1293.31 -35.412 1296.7 -34.304 1300.67 -32.872 C 1304.09 -30.667 1306.92 -28.786 1309.76 -26.904 C 1310.92 -25.398 1312.09 -23.891 1313.7 -21.969 C 1315.54 -19.15 1316.94 -16.748 1318.34 -14.346 C 1318.57 -13.43 1318.8 -12.515 1319.33 -10.985 C 1319.7 -9.669 1319.77 -8.967 1319.85 -8.265 Z"/><path fill="#046AD7" d="M 385.387 96.196 C 389.047 97.985 390.355 100.501 389.917 104.33 C 389.524 107.774 389.858 111.3 389.538 114.938 C 389.096 113.46 389.241 111.757 388.785 110.235 C 388.502 109.29 387.309 107.94 386.518 107.936 C 381.313 107.907 377.798 111.213 376.889 116.521 C 376.758 117.282 376.331 117.993 376.04 118.727 C 377.855 109.368 372.827 104.64 365.168 100.385 C 352.971 93.608 341.404 85.698 329.55 78.301 C 324.918 75.41 324.478 64.936 328.975 61.711 C 331.947 59.58 335.056 57.641 338.583 55.848 C 340.842 57.526 342.545 59.075 344.414 60.391 C 347.272 62.404 350.071 64.652 353.229 66.038 C 355.345 66.967 358.115 66.999 360.44 66.582 C 361.46 66.399 362.464 64.184 362.815 62.733 C 363.224 61.041 362.911 59.175 362.911 57.415 C 357.403 57.14 356.495 54.847 359.559 50.048 C 361.051 50.586 362.562 51.132 364.073 51.678 C 364.18 60.762 364.402 69.848 364.328 78.932 C 364.304 81.902 365.121 83.74 367.8 85.285 C 373.671 88.67 379.314 92.45 385.387 96.196 Z"/><path fill="#FCA408" d="M 524.018 45.707 C 520.308 49.187 516.181 49.814 511.83 47.144 C 506.499 43.873 501.345 40.313 495.987 37.089 C 494.575 36.239 492.693 36.17 490.639 35.748 C 490.165 29.062 490.08 22.37 490.332 15.168 C 498.081 10.358 505.43 5.948 512.927 1.806 C 516.479 -0.156 520.315 -1.604 524.098 -2.819 C 524.121 13.667 524.069 29.687 524.018 45.707 Z"/><path fill="#FDC409" d="M 524.023 -3.285 C 520.315 -1.604 516.479 -0.156 512.927 1.806 C 505.43 5.948 498.081 10.358 490.324 14.7 C 485.546 12.149 481.115 9.555 476.169 6.536 C 472.955 4.404 470.258 2.698 466.493 0.318 C 471.488 -0.812 475.082 -1.624 478.903 -2.488 C 478.722 -5.721 478.565 -8.514 478.409 -11.307 C 478.504 -13.661 478.6 -16.016 478.696 -19.251 C 478.589 -23.192 478.48 -26.252 478.371 -29.312 C 478.608 -30.082 478.844 -30.852 479.143 -31.827 C 480.25 -31.33 481.258 -30.878 482.801 -30.111 C 486.133 -28.17 488.932 -26.544 491.73 -24.918 C 494.811 -23.013 497.892 -21.108 501.533 -18.899 C 505.02 -16.793 507.948 -14.991 510.876 -13.189 C 515.077 -10.667 519.278 -8.144 523.842 -5.134 C 524.144 -4.193 524.083 -3.739 524.023 -3.285 Z"/><path fill="#046AD7" d="M 1134.06 33.743 C 1133.79 34.208 1133.51 34.673 1133 35.769 C 1131.42 39.485 1130.07 42.569 1128.72 45.653 C 1128.44 46.154 1128.17 46.655 1127.76 47.565 C 1127.45 48.165 1127.42 48.379 1127.55 48.615 C 1127.39 48.795 1127.23 48.976 1126.5 49.435 C 1124.58 49.104 1123.24 47.963 1121.91 47.977 C 1116.61 48.034 1111.32 48.45 1106.02 48.733 C 1100.61 36.432 1095.2 24.132 1089.96 11.164 C 1097.18 11.318 1103.08 9.108 1107.96 4.052 C 1110.95 10.694 1113.73 17.022 1116.82 24.034 C 1118.21 21.259 1119.1 19.495 1120.38 17.738 C 1124.49 18.084 1128.25 18.235 1131.93 18.83 C 1134.35 19.222 1136.67 20.255 1139.02 21.329 C 1138.67 22.684 1138.35 23.712 1138.02 24.74 C 1137.61 25.502 1137.19 26.264 1136.51 27.573 C 1135.51 29.994 1134.79 31.868 1134.06 33.743 Z"/><path fill="#0283E7" d="M 962.871 3.727 C 962.804 0.358 962.737 -3.011 963.164 -6.834 C 969.279 -8.283 974.92 -9.183 980.518 -10.301 C 985.174 -11.232 989.738 -12.683 994.42 -13.406 C 997.869 -13.938 1001.53 -14.201 1004.94 -13.628 C 1009.97 -12.784 1012.86 -14.253 1014.34 -19.393 C 1020.47 -20.486 1026.15 -21.487 1031.96 -22.157 C 1034.1 -17.68 1037.02 -15.031 1042 -15.171 C 1042.94 -15.197 1043.91 -14.019 1044.87 -13.397 C 1043.87 -12.77 1042.87 -12.143 1041.67 -11.388 C 1044.93 -9.861 1047.77 -8.53 1050.77 -6.571 C 1047.04 -1.533 1044.42 4.699 1036.54 3.633 C 1034.8 2.564 1033.36 1.606 1031.87 0.348 C 1031.15 0.021 1030.47 -0.007 1029.43 -0.04 C 1028.34 -0.21 1027.62 -0.373 1026.78 -0.91 C 1025.11 -1.611 1023.57 -2.207 1022.02 -2.224 C 1013.2 -2.315 1004.38 -2.23 995.556 -2.305 C 993.945 -2.318 992.346 -2.899 990.727 -3.028 C 988.739 -3.187 986.595 -3.632 984.761 -3.107 C 977.413 -1.007 970.159 1.42 962.871 3.727 Z"/><path fill="#075BC6" d="M 1203.28 7.802 C 1203.43 12.098 1203.61 16.394 1203.73 20.691 C 1203.95 28.138 1207.52 31.523 1215.04 31.163 C 1217.17 31.061 1219.32 30.634 1221.4 30.123 C 1223.47 29.612 1225.48 28.808 1228.02 27.965 C 1228.73 32.32 1229.45 36.659 1230.3 41.354 C 1231.02 44.115 1230.49 45.933 1227.84 46.627 C 1223.82 47.681 1219.79 48.732 1214.89 49.86 C 1210.98 49.956 1207.93 49.976 1204.89 49.997 C 1201.22 48.799 1197.55 47.601 1193.35 45.961 C 1183.27 38.525 1181.56 28.67 1183.03 17.784 C 1183.97 17.992 1184.63 18.114 1185.2 18.412 C 1191.94 21.958 1192.68 21.772 1197.23 15.323 C 1197.51 14.927 1197.85 14.298 1198.2 14.271 C 1202.67 13.923 1201.92 10.641 1202.15 7.774 C 1202.68 7.787 1202.98 7.798 1203.28 7.802 Z"/><path fill="#075BC6" d="M 1263.64 48.6 C 1260.76 46.962 1258.25 45.392 1255.8 43.729 C 1253.8 42.362 1251.86 40.884 1250.12 39.093 C 1254.31 37.641 1258.3 36.605 1262.25 35.444 C 1265.14 34.596 1268.21 33.808 1267.91 29.74 C 1269 30.102 1270.09 30.464 1271.81 31.101 C 1283.31 34.189 1293.69 33.536 1303.18 26.871 C 1304.53 26.092 1305.88 25.314 1307.78 24.717 C 1311.06 28.333 1313.95 31.659 1316.43 35.269 C 1317.15 36.31 1316.68 38.167 1316.75 39.65 C 1314.88 40.756 1313.01 41.862 1310.66 43.356 C 1308.41 44.719 1306.65 45.695 1304.89 46.671 C 1301.79 47.7 1298.69 48.729 1295.11 49.633 C 1294.31 49.315 1294.06 49.388 1293.89 49.725 C 1293.45 49.716 1293 49.707 1291.77 49.75 C 1285.95 49.923 1280.92 50.043 1275.88 50.163 C 1271.94 49.651 1267.99 49.139 1263.64 48.6 Z"/><path fill="#FCA408" d="M 489.752 56.964 C 495.086 59.957 500.039 63.282 505.187 66.27 C 510.307 69.241 515.623 71.873 522.135 75.336 C 515.691 79.234 510.199 82.145 505.168 85.706 C 499.092 90.007 494.05 90.698 487.377 85.882 C 482.567 82.41 475.763 81.739 469.901 79.669 C 467.84 78.941 465.937 77.766 463.995 76.812 C 465.033 74.771 465.709 73.443 466.145 71.918 C 473.755 66.863 481.605 62.006 489.752 56.964 Z"/><path fill="#0283E7" d="M 246.486 -79.255 C 246.599 -80.317 246.712 -81.38 246.909 -82.837 C 247.571 -83.368 248.149 -83.504 249.176 -83.995 C 251.596 -85.384 253.566 -86.419 255.857 -87.232 C 255.576 -84.356 254.975 -81.7 254.125 -77.941 C 257.23 -76.077 261.547 -73.467 265.884 -70.89 C 273.549 -66.335 281.227 -61.801 288.9 -57.258 C 292.11 -55.115 295.32 -52.972 298.727 -50.174 C 300.409 -40.154 308.396 -35.306 313.613 -28.703 C 312.869 -27.201 312.228 -25.906 311.587 -24.612 C 302.865 -35.119 296.158 -37.023 284.555 -32.129 C 282.97 -33.48 281.94 -34.688 281.373 -36.084 C 280.326 -38.667 280.15 -41.828 278.53 -43.906 C 275.602 -47.662 270.457 -50.227 268.812 -54.324 C 266.166 -60.912 260.851 -61.151 255.728 -62.681 C 255.487 -62.753 255.35 -63.176 255.171 -63.44 C 256.298 -69.292 256.299 -69.295 250.348 -71.269 C 249.254 -71.632 248.152 -71.97 247.053 -72.32 C 247.053 -72.32 246.779 -72.251 246.746 -72.647 C 246.638 -75.113 246.562 -77.184 246.486 -79.255 Z"/><path fill="#075BC6" d="M 1105.83 49.019 C 1111.32 48.45 1116.61 48.034 1121.91 47.977 C 1123.24 47.963 1124.58 49.104 1126.29 49.729 C 1126.66 49.744 1126.72 50.222 1126.49 50.681 C 1125.68 52.617 1125.09 54.094 1124.5 55.57 C 1124.04 56.425 1123.57 57.28 1122.96 58.607 C 1122.81 59.079 1122.82 59.523 1122.57 59.731 C 1121.8 61.131 1121.29 62.322 1120.51 63.718 C 1118.09 66.752 1115.95 69.58 1113.81 72.407 C 1108.94 74.549 1104.06 76.69 1098.58 79.241 C 1094.92 79.736 1091.88 79.82 1088.84 79.905 C 1083.86 78.402 1078.88 76.9 1073.28 75.21 C 1075.51 69.437 1077.52 64.259 1079.79 58.38 C 1091.19 63.032 1101.01 62.936 1105.83 49.019 Z"/><path fill="#0290F3" d="M 1216.47 -35.342 C 1219.95 -35.362 1222.99 -35.279 1226.61 -34.951 C 1227.54 -34.548 1227.91 -34.389 1228.28 -34.231 C 1228.28 -28.684 1228.28 -23.136 1228.28 -17.185 C 1220.36 -17.185 1212.64 -17.185 1204.07 -17.152 C 1201.26 -16.503 1199.26 -15.276 1197.35 -15.39 C 1192.14 -15.699 1186.96 -16.576 1181.36 -17.187 C 1179.26 -17.071 1177.57 -16.997 1175.89 -16.922 C 1174.02 -17.144 1172.15 -17.365 1170.13 -18.387 C 1169.97 -24.401 1169.97 -29.613 1169.97 -35.226 C 1174.39 -35.226 1178.15 -35.226 1182.13 -34.95 C 1188.34 -30.838 1195.19 -30.529 1201.94 -30.394 C 1205.11 -30.331 1208.73 -30.757 1209.88 -34.888 C 1211.93 -35.005 1213.99 -35.122 1216.47 -35.342 Z"/><path fill="#FCA408" d="M 456.904 -127.21 C 459.941 -127.16 462.978 -127.11 466.9 -127.04 C 471.002 -127.1 474.22 -127.17 477.438 -127.24 C 478.189 -126.74 478.939 -126.25 479.72 -125.06 C 479.774 -115.05 479.797 -105.75 479.82 -96.442 C 475.827 -96.295 471.834 -96.148 466.958 -96.012 C 461.045 -95.91 456.016 -95.798 450.987 -95.687 C 450.987 -95.687 450.638 -95.905 450.331 -96.318 C 450.024 -106.67 450.024 -116.61 450.024 -126.72 C 452.652 -126.91 454.778 -127.06 456.904 -127.21 Z"/><path fill="#FCA408" d="M 472.969 -45.405 C 472.741 -48.954 472.376 -52.502 472.315 -56.054 C 472.207 -62.337 472.285 -68.624 472.285 -75.157 C 482.003 -75.157 491.097 -75.157 500.571 -75.157 C 500.571 -65.592 500.571 -56.197 500.571 -45.622 C 494.573 -45.622 488.654 -45.622 481.872 -45.636 C 478.33 -45.568 475.649 -45.486 472.969 -45.405 Z"/><path fill="#FCA408" d="M 443.825 -83.835 C 444.186 -82.475 444.834 -81.121 444.859 -79.755 C 444.978 -73.257 445.008 -66.755 444.876 -60.259 C 444.846 -58.794 444.042 -57.346 442.801 -55.834 C 439.654 -55.702 437.3 -55.626 434.947 -55.55 C 430.031 -55.579 425.114 -55.608 419.619 -55.879 C 418.869 -56.845 418.697 -57.57 418.525 -58.295 C 418.584 -63.637 418.642 -68.98 418.712 -75.157 C 418.667 -76.759 418.611 -77.526 418.555 -78.293 C 419.61 -79.968 417.043 -83.538 422.006 -83.537 C 423.397 -83.588 424.08 -83.642 424.763 -83.695 C 428.534 -83.67 432.304 -83.646 436.954 -83.63 C 439.831 -83.705 441.828 -83.77 443.825 -83.835 Z"/><path fill="#FC8807" d="M 406.997 33.767 C 409.011 33.676 411.025 33.584 413.884 33.505 C 416.465 33.451 418.202 33.385 419.938 33.318 C 424.281 33.409 428.623 33.5 433.43 34.135 C 433.895 43.353 433.895 52.027 433.895 60.701 C 432.167 60.76 430.439 60.82 427.948 60.848 C 421.419 60.892 415.653 60.967 409.888 61.042 C 409.146 60.973 408.404 60.903 407.295 60.293 C 406.95 51.091 406.973 42.429 406.997 33.767 Z"/><path fill="#FCA408" d="M 434.869 15.261 C 429.528 15.15 424.186 15.039 418.403 14.335 C 417.899 8.069 417.837 2.396 417.775 -3.277 C 417.775 -6.087 417.775 -8.897 417.775 -12.532 C 423.134 -12.532 428.05 -12.532 433.876 -12.524 C 437.831 -12.517 440.877 -12.517 443.935 -12.517 C 444.267 -10.396 444.515 -8.817 444.763 -7.237 C 444.713 -4.877 444.662 -2.517 444.554 0.614 C 444.595 3.842 444.696 6.299 444.796 8.756 C 444.647 10.641 444.499 12.525 443.691 14.719 C 440.311 15.106 437.59 15.184 434.869 15.261 Z"/><path fill="#0290F3" d="M 288.904 -57.69 C 281.227 -61.801 273.549 -66.335 265.884 -70.89 C 261.547 -73.467 257.23 -76.077 254.125 -77.941 C 254.975 -81.7 255.576 -84.356 256.079 -87.507 C 261.387 -91.468 266.793 -94.934 272.199 -98.4 C 273.199 -98.971 274.199 -99.54 275.551 -100.2 C 276.466 -99.12 277.833 -97.435 277.473 -96.89 C 272.053 -88.69 279.992 -83.747 282.243 -77.584 C 284.599 -71.135 289.269 -65.514 288.904 -57.69 Z"/><path fill="#0290F3" d="M 1013.9 -19.3 C 1012.86 -14.253 1009.97 -12.784 1004.94 -13.628 C 1001.53 -14.201 997.869 -13.938 994.42 -13.406 C 989.738 -12.683 985.174 -11.232 980.518 -10.301 C 974.92 -9.183 969.279 -8.283 963.259 -7.285 C 962.807 -13.307 962.754 -19.331 962.788 -25.818 C 967.762 -28.303 972.608 -30.436 977.558 -32.29 C 979.379 -32.972 981.446 -32.994 983.895 -32.939 C 984.352 -31.067 984.315 -29.574 984.14 -27.756 C 984.149 -25.091 984.296 -22.751 984.623 -20.208 C 984.859 -19.832 984.915 -19.66 985.075 -19.228 C 985.758 -19.077 986.339 -19.186 987.377 -19.39 C 992.86 -19.41 997.885 -19.336 1003.05 -19.037 C 1003.77 -18.963 1004.34 -19.114 1005.35 -19.361 C 1008.5 -19.404 1011.2 -19.352 1013.9 -19.3 Z"/><path fill="#0473DB" d="M 364.188 51.286 C 362.562 51.132 361.051 50.586 359.559 50.048 C 356.495 54.847 357.403 57.14 362.911 57.415 C 362.911 59.175 363.224 61.041 362.815 62.733 C 362.464 64.184 361.46 66.399 360.44 66.582 C 358.115 66.999 355.345 66.967 353.229 66.038 C 350.071 64.652 347.272 62.404 344.414 60.391 C 342.545 59.075 340.842 57.526 338.919 55.742 C 342.508 53.315 343.232 50.072 343.146 45.992 C 343.032 40.572 343.691 35.137 344.483 29.951 C 345.33 30.709 345.602 31.499 346.107 31.699 C 354.091 34.855 362.104 37.936 370.11 41.034 C 368.424 42.16 366.737 43.286 364.628 44.781 C 364.064 45.432 363.997 45.731 364.003 46.045 C 364.103 47.661 364.203 49.277 364.188 51.286 Z"/><path fill="#0290F3" d="M 1081.83 -6.241 C 1077.84 -14.69 1073.86 -23.138 1069.64 -32.237 C 1069.28 -37.408 1073.07 -34.134 1074.55 -35.463 C 1078.65 -35.37 1082.76 -35.182 1086.86 -35.208 C 1091.08 -35.235 1093.16 -33.279 1093.81 -29.113 C 1094.16 -26.837 1095.36 -24.693 1096.54 -21.989 C 1098.03 -18.791 1099.14 -16.093 1099.89 -13.341 C 1093.67 -10.81 1089.61 -3.856 1081.83 -6.241 Z"/><path fill="#0290F3" d="M 1045.2 -13.449 C 1043.91 -14.019 1042.94 -15.197 1042 -15.171 C 1037.02 -15.031 1034.1 -17.68 1032.05 -22.488 C 1037.07 -29.394 1038.36 -36.08 1034 -40.681 C 1031.21 -43.628 1026.57 -44.828 1022.76 -46.811 C 1025.31 -51.681 1028.83 -48.079 1031.82 -47.676 C 1035 -47.248 1038.13 -46.212 1041.19 -45.156 C 1042.82 -44.593 1044.87 -43.789 1045.63 -42.463 C 1047.72 -38.826 1049.83 -37.037 1053.79 -40.008 C 1054.45 -40.502 1055.72 -40.188 1057.2 -39.816 C 1057.55 -36.005 1057.39 -32.625 1057.24 -29.246 C 1055.55 -22.351 1051.5 -17.218 1045.2 -13.449 Z"/><path fill="#05A9F7" d="M 1209.55 -35.039 C 1208.73 -30.757 1205.11 -30.331 1201.94 -30.394 C 1195.19 -30.529 1188.34 -30.838 1182.21 -35.417 C 1182.14 -43.145 1182.21 -50.131 1182.28 -57.117 C 1188.27 -57.17 1194.25 -57.342 1200.22 -57.176 C 1201.41 -57.143 1202.55 -55.814 1203.71 -54.308 C 1203.78 -52.778 1203.85 -52.021 1203.91 -51.265 C 1203.88 -47.236 1203.84 -43.207 1203.8 -38.304 C 1205.39 -36.79 1206.98 -36.151 1208.58 -35.513 C 1208.79 -35.405 1209.01 -35.298 1209.55 -35.039 Z"/><path fill="#0283E7" d="M 370.083 41.027 C 362.104 37.936 354.091 34.855 346.107 31.699 C 345.602 31.499 345.33 30.709 344.888 29.821 C 349.11 26.227 353.394 23.006 354.752 16.882 C 361.881 18.679 368.706 19.924 374.62 22.951 C 378.368 24.871 381.749 25.893 385.81 26.156 C 387.78 32.886 381.878 33.691 378.853 36.529 C 376.415 37.848 373.977 39.168 371.081 40.405 C 370.449 40.553 370.274 40.783 370.1 41.013 C 370.1 41.013 370.055 41.019 370.083 41.027 Z"/><path fill="#FDC409" d="M 499.901 -127.21 C 496.774 -127.38 493.646 -127.55 490.052 -127.74 C 490.052 -135.7 490.052 -143.54 490.052 -151.71 C 497.253 -151.71 504.437 -151.71 512.232 -151.71 C 512.361 -150.18 512.492 -148.61 512.63 -146.23 C 512.704 -143.7 512.773 -141.99 512.841 -140.27 C 512.794 -136.58 512.747 -132.9 512.396 -128.56 C 508.029 -127.68 503.965 -127.45 499.901 -127.21 Z"/><path fill="#0473DB" d="M 962.772 4.187 C 970.159 1.42 977.413 -1.007 984.761 -3.107 C 986.595 -3.632 988.739 -3.187 990.727 -3.028 C 992.346 -2.899 993.945 -2.318 995.556 -2.305 C 1004.38 -2.23 1013.2 -2.315 1022.02 -2.224 C 1023.57 -2.207 1025.11 -1.611 1026.36 -0.872 C 1012.35 -0.462 998.625 -0.462 984.394 -0.462 C 984.394 6.861 984.394 13.81 984.394 20.758 C 983.204 18.873 982.014 16.987 980.824 15.102 C 979.792 17.034 979.247 19.761 977.636 20.746 C 973.202 23.46 968.322 25.444 963.231 27.723 C 962.787 20.035 962.73 12.342 962.772 4.187 Z"/><path fill="#0843A4" d="M 389.69 154.723 C 389.735 167.06 389.779 179.396 389.757 192.191 C 388.397 192.977 387.104 193.303 385.467 193.629 C 376.287 190.334 374.731 183.592 375.764 175.108 C 376.382 170.032 375.874 164.819 376.273 159.139 C 378.203 157.747 379.9 155.961 381.228 156.202 C 384.681 156.83 384.84 154.991 384.889 152.627 C 384.909 151.635 384.662 150.565 384.958 149.67 C 385.371 148.421 386.18 147.304 386.819 146.13 C 387.512 147.245 388.463 148.28 388.835 149.493 C 389.349 151.166 389.426 152.973 389.69 154.723 Z"/><path fill="#FDC409" d="M 522.793 -165.75 C 522.793 -170.67 522.793 -175.58 522.793 -180.97 C 530.142 -180.97 536.719 -180.97 543.781 -180.5 C 544.399 -173.46 544.531 -166.88 544.663 -160.3 C 540.722 -159.87 536.782 -159.44 531.95 -159.02 C 528.5 -159.02 525.941 -159.02 523.42 -159.02 C 523.159 -161.82 522.976 -163.78 522.793 -165.75 Z"/><path fill="#FCA408" d="M 469.096 -19.254 C 468.905 -17.732 468.713 -16.21 467.752 -14.531 C 460.416 -14.374 453.848 -14.374 446.994 -14.374 C 446.994 -22.043 446.994 -29.139 446.994 -36.234 C 452.318 -36.324 457.643 -36.414 463.834 -36.487 C 466.102 -36.399 467.503 -36.33 468.904 -36.26 C 468.922 -33.232 468.94 -30.204 468.952 -26.295 C 468.997 -23.361 469.047 -21.307 469.096 -19.254 Z"/><path fill="#0283E7" d="M 1151.71 -7.352 C 1150.08 -3.595 1148.44 0.162 1146.57 4.326 C 1146.33 4.732 1145.96 4.858 1145.74 4.569 C 1143.06 4.561 1140.6 4.843 1137.74 5.171 C 1136.71 3.191 1135.93 0.741 1134.38 -1.041 C 1133.09 -2.52 1130.9 -3.212 1129.15 -4.608 C 1130.07 -7.733 1130.96 -10.502 1131.84 -13.271 C 1132.33 -13.99 1132.81 -14.709 1133.61 -15.942 C 1134.92 -18.394 1135.91 -20.331 1137.27 -22.23 C 1143.07 -17.743 1149.71 -18.891 1155.94 -17.875 C 1154.51 -14.122 1153.11 -10.737 1151.71 -7.352 Z"/><path fill="#061121" d="M 740.926 -67.541 C 740.973 -67.218 741.054 -66.903 741.151 -65.964 C 741.207 -63.363 741.282 -61.395 741.258 -59.122 C 741.224 -57.971 741.288 -57.125 741.244 -55.844 C 741.196 -53.021 741.256 -50.632 741.315 -48.244 C 740.871 -47.912 740.427 -47.579 739.549 -47.178 C 738.897 -47.125 738.68 -47.108 738.466 -47.059 C 737.274 -47.122 736.083 -47.186 734.053 -47.264 C 728.818 -47.28 724.422 -47.28 719.974 -47.28 C 719.974 -54.364 719.974 -60.776 719.974 -67.541 C 727.072 -67.541 733.999 -67.541 740.926 -67.541 Z"/><path fill="#0843A4" d="M 364.784 144.727 C 364.849 154.757 364.914 164.788 365.066 175.281 C 364.749 177.359 364.345 178.975 363.367 180.305 C 358.881 177.904 354.969 175.79 351.057 173.677 C 350.983 171.322 350.909 168.967 350.753 166.178 C 350.728 164.666 350.785 163.59 350.834 161.68 C 350.778 158.479 350.729 156.112 350.68 153.745 C 350.766 151.173 350.853 148.601 351.5 145.774 C 356.301 145.254 360.543 144.991 364.784 144.727 Z"/><path fill="#0473DB" d="M 1036.85 3.742 C 1044.42 4.699 1047.04 -1.533 1050.98 -6.31 C 1061.31 -1.062 1063.23 8.529 1063.2 18.996 C 1063.19 20.789 1062.76 22.581 1062.24 24.266 C 1061.63 23.117 1061.61 21.466 1060.93 21.129 C 1054.63 17.98 1048.59 13.872 1040.91 14.347 C 1039.5 10.554 1038.17 7.148 1036.85 3.742 Z"/><path fill="#0283E7" d="M 1081.85 -5.971 C 1089.61 -3.856 1093.67 -10.81 1100.12 -13.113 C 1101.68 -11.013 1102.64 -9.088 1103.6 -7.163 C 1103.74 -6.614 1103.88 -6.064 1104.29 -4.947 C 1105.3 -2.925 1106.03 -1.471 1106.77 -0.018 C 1106.91 0.819 1107.05 1.656 1107.51 2.88 C 1107.83 3.267 1107.76 3.736 1107.76 3.736 C 1103.08 9.108 1097.18 11.318 1089.92 10.809 C 1087.43 6.307 1085.16 1.493 1082.82 -3.918 C 1082.64 -4.832 1082.44 -5.071 1082.14 -5.23 C 1082.05 -5.387 1081.96 -5.544 1081.85 -5.971 Z"/><path fill="#0473DB" d="M 1129.11 -4.252 C 1130.9 -3.212 1133.09 -2.52 1134.38 -1.041 C 1135.93 0.741 1136.71 3.191 1137.74 5.171 C 1140.6 4.843 1143.06 4.561 1145.71 4.928 C 1144.27 9.631 1142.64 13.686 1141.02 17.74 C 1140.64 18.514 1140.26 19.288 1139.66 20.453 C 1139.44 20.845 1139.04 21.002 1139.04 21.002 C 1136.67 20.255 1134.35 19.222 1131.93 18.83 C 1128.25 18.235 1124.49 18.084 1120.39 17.365 C 1120.61 16.081 1121.37 15.244 1121.77 14.261 C 1124.26 8.108 1126.67 1.923 1129.11 -4.252 Z"/><path fill="#046AD7" d="M 1267.73 29.464 C 1268.21 33.808 1265.14 34.596 1262.25 35.444 C 1258.3 36.605 1254.31 37.641 1249.93 38.795 C 1243.82 34.3 1239.93 28.541 1238.01 21.108 C 1244.23 24.006 1253.3 22.233 1256.81 17.267 C 1259.26 20.24 1261.33 23.078 1263.4 25.917 C 1264.78 27.007 1266.16 28.097 1267.73 29.464 Z"/><path fill="#0290F3" d="M 1155.97 -18.243 C 1149.71 -18.891 1143.07 -17.743 1137.29 -22.607 C 1137.78 -26.478 1138.63 -29.934 1139.47 -33.389 C 1142.8 -33.992 1146.1 -34.882 1149.46 -35.124 C 1153.6 -35.424 1157.78 -35.185 1162.43 -34.814 C 1161.36 -30.38 1159.8 -26.312 1158.24 -22.243 C 1157.75 -21.177 1157.27 -20.111 1156.56 -18.679 C 1156.33 -18.314 1155.97 -18.243 1155.97 -18.243 Z"/><path fill="#FCA408" d="M 529.557 -106.76 C 529.567 -102.48 529.504 -98.65 529.594 -94.822 C 529.652 -92.321 528.721 -91.194 526.089 -91.277 C 521.773 -91.415 517.449 -91.314 512.667 -91.314 C 512.667 -97.422 512.667 -103.3 512.667 -109.89 C 517.485 -109.89 522.413 -110 527.325 -109.77 C 528.105 -109.73 528.809 -108.1 529.557 -106.76 Z"/><path fill="#046AD7" d="M 1041 14.734 C 1048.59 13.872 1054.63 17.98 1060.93 21.129 C 1061.61 21.466 1061.63 23.117 1061.98 24.567 C 1060.58 27.929 1059.15 30.884 1057.38 33.934 C 1053.87 32.72 1050.7 31.408 1047.53 30.099 C 1044.1 28.683 1040.67 27.27 1037.07 25.399 C 1038.26 21.539 1039.63 18.136 1041 14.734 Z"/><path fill="#0473DB" d="M 678.191 107.222 C 656.191 107.307 634.498 107.232 612.405 107.283 C 611.484 106.535 610.962 105.66 610.44 104.785 C 611.291 104.453 612.134 103.865 612.996 103.834 C 616.317 103.716 619.645 103.776 622.971 103.769 C 640.596 103.732 658.22 103.691 675.845 103.662 C 678.15 103.658 681.187 103.143 678.191 107.222 Z"/><path fill="#FC7208" d="M 1317.12 106.878 C 1294.52 107.19 1272.12 107.161 1249.33 107.248 C 1245.94 103.928 1248.39 103.772 1251.1 103.762 C 1262.37 103.721 1273.65 103.663 1284.92 103.641 C 1294.54 103.623 1304.15 103.629 1313.77 103.666 C 1315.64 103.673 1318.18 103.057 1317.12 106.878 Z"/><path fill="#FC7208" d="M 420.55 99.73 C 418.441 101.345 415.988 103.023 413.151 104.696 C 415.247 103.059 417.726 101.427 420.55 99.73 Z"/><path fill="#F2F7FC" d="M 359.894 -44.685 C 358.487 -44.989 357.064 -45.705 355.435 -46.7 C 356.778 -46.351 358.329 -45.724 359.894 -44.685 Z"/><path fill="#0290F3" d="M 385.384 -0.291 C 385.791 8.113 385.85 16.464 385.822 25.277 C 381.749 25.893 378.368 24.871 374.62 22.951 C 368.706 19.924 361.881 18.679 355.022 16.646 C 355.102 6.408 351.003 0.136 341.13 -3.797 C 337.162 -6.062 333.861 -5.997 330.877 -3.17 C 330.877 -3.17 330.617 -3.004 330.096 -3.125 C 325.236 -5.923 320.525 -8.18 316.75 -11.5 C 315.363 -12.72 316.079 -16.458 316.125 -19.042 C 316.132 -19.427 317.739 -19.783 318.606 -20.153 C 318.322 -20.66 318.038 -21.168 317.754 -21.675 C 315.911 -22.155 314.069 -22.635 312.227 -23.115 C 312.018 -23.474 311.808 -23.833 311.593 -24.402 C 312.228 -25.906 312.869 -27.201 313.613 -28.703 C 308.396 -35.306 300.409 -40.154 298.927 -49.905 C 304.294 -47.385 309.773 -44.667 315.003 -41.534 C 326.5 -34.648 337.87 -27.553 349.612 -20.418 C 361.634 -13.644 373.336 -6.994 385.384 -0.291 Z"/><path fill="#075BC6" d="M 271.431 23.937 C 268.306 24.01 265.03 23.51 262.086 24.279 C 256.264 25.801 252.086 29.538 251.129 35.791 C 250.07 42.709 251.795 49.153 258.163 52.483 C 262.676 54.842 263.155 57.863 262.69 62.371 C 262.026 63.661 261.087 64.477 260.983 65.388 C 260.742 67.51 260.901 69.678 260.902 71.828 C 260.905 81.155 259.752 82.488 249.627 84.485 C 249.009 79.624 248.394 74.781 247.39 69.84 C 246.906 68.34 246.81 66.939 246.706 64.723 C 246.635 62.52 246.572 61.132 246.509 59.744 C 246.584 57.029 246.659 54.315 246.718 50.836 C 246.636 49.629 246.571 49.187 246.505 48.745 C 246.572 44.04 246.638 39.335 246.698 33.736 C 246.63 30.143 246.57 27.444 246.51 24.744 C 246.609 13.376 246.709 2.008 247.159 -9.997 C 247.757 -10.852 247.992 -11.089 248.262 -11.274 C 248.34 -11.327 248.633 -11.241 248.636 -11.205 C 248.738 -9.747 248.881 -8.288 248.889 -6.828 C 248.919 -1.798 248.901 3.232 248.901 9.281 C 254.56 4.871 257.915 7.99 261.314 10.664 C 264.939 13.516 268.41 16.57 272.116 19.308 C 275.086 21.503 273.727 22.704 271.431 23.937 Z"/><path fill="#075BC6" d="M 274.524 69.878 C 274.081 65.328 273.855 60.872 273.98 56.426 C 274.015 55.168 274.772 53.602 275.715 52.749 C 283.593 45.616 284.79 39.099 279.958 29.464 C 281.847 28.181 284.258 27.81 284.914 26.535 C 286.006 24.415 287.154 21.024 286.196 19.387 C 282.885 13.729 282.601 13.705 288.627 10.752 C 288.678 28.119 288.73 45.486 288.677 63.315 C 288.017 66.455 287.082 69.118 286.982 71.813 C 286.737 78.421 285.823 79.109 279.892 76.387 C 278.73 75.854 277.471 75.533 276.626 75.242 C 275.961 73.241 275.418 71.609 274.524 69.878 Z"/><path fill="#075BC6" d="M 364.882 144.268 C 360.543 144.991 356.301 145.254 351.579 145.356 C 351.014 144.833 350.929 144.472 350.821 143.612 C 350.747 142.656 350.696 142.2 350.644 141.743 C 350.709 141.251 350.83 140.759 350.83 140.266 C 350.822 133.615 352.881 125.894 350.176 120.62 C 347.598 115.596 340.081 113.068 334.67 109.544 C 324.356 102.829 313.928 96.285 303.723 89.408 C 302.141 88.342 300.596 85.906 300.56 84.074 C 300.3 70.936 300.434 57.79 300.779 44.195 C 301.114 43.743 301.519 43.723 301.519 43.723 C 301.519 43.723 301.925 43.726 301.919 44.193 C 301.914 44.991 301.876 45.326 301.918 45.652 C 302.599 50.92 299.71 56.971 305.408 61.204 C 305.856 61.537 305.609 63.99 305.131 64.201 C 299.761 66.574 302.41 70.705 302.274 74.282 C 309.36 74.846 311.463 73.363 313.05 67.248 C 313.207 66.644 314.144 66.242 314.718 65.746 C 314.796 66.404 315.056 67.102 314.925 67.715 C 312.678 78.183 317.962 83.764 326.7 88.547 C 338.627 95.077 349.794 102.986 361.392 110.133 C 364.092 111.797 365.292 113.587 365.186 116.885 C 364.899 125.853 365.02 134.834 364.882 144.268 Z"/><path fill="#046AD7" d="M 288.723 10.316 C 282.601 13.705 282.885 13.729 286.196 19.387 C 287.154 21.024 286.006 24.415 284.914 26.535 C 284.258 27.81 281.847 28.181 279.856 29.128 C 279.487 29.296 279.517 29.257 279.538 28.913 C 279.038 28.281 278.516 27.994 277.994 27.706 C 275.985 26.608 273.976 25.509 271.699 24.173 C 273.727 22.704 275.086 21.503 272.116 19.308 C 268.41 16.57 264.939 13.516 261.314 10.664 C 257.915 7.99 254.56 4.871 248.901 9.281 C 248.901 3.232 248.919 -1.798 248.889 -6.828 C 248.881 -8.288 248.738 -9.747 248.636 -11.205 C 248.633 -11.241 248.34 -11.327 248.262 -11.274 C 247.992 -11.089 247.757 -10.852 247.264 -10.456 C 246.967 -20.633 246.913 -30.987 247.342 -41.696 C 248.185 -40.366 248.801 -38.69 248.858 -36.996 C 249.006 -32.609 248.907 -28.213 248.907 -25.189 C 254.002 -23.835 258.773 -23.781 261.84 -21.467 C 266.422 -18.011 271.016 -17.908 276.067 -18.259 C 276.128 -9.888 279.172 -3.464 286.71 1.115 C 288.52 2.215 288.174 6.863 288.723 10.316 Z"/><path fill="#0473DB" d="M 276.227 -18.586 C 271.016 -17.908 266.422 -18.011 261.84 -21.467 C 258.773 -23.781 254.002 -23.835 248.907 -25.189 C 248.907 -28.213 249.006 -32.609 248.858 -36.996 C 248.801 -38.69 248.185 -40.366 247.441 -42.155 C 246.988 -51.971 246.919 -61.683 246.951 -71.857 C 248.152 -71.97 249.254 -71.632 250.348 -71.269 C 256.299 -69.295 256.298 -69.292 255.171 -63.44 C 255.35 -63.176 255.487 -62.753 255.728 -62.681 C 260.851 -61.151 266.166 -60.912 268.812 -54.324 C 270.457 -50.227 275.602 -47.662 278.53 -43.906 C 280.15 -41.828 280.326 -38.667 281.373 -36.084 C 281.94 -34.688 282.97 -33.48 284.208 -32.098 C 281.879 -27.643 279.133 -23.278 276.227 -18.586 Z"/><path fill="#0473DB" d="M 301.925 43.726 C 301.925 43.726 301.519 43.723 301.519 43.723 C 301.519 43.723 301.114 43.743 300.911 43.748 C 300.466 35.584 300.223 27.414 300.708 18.943 C 307.598 18.673 313.759 18.704 319.92 18.736 C 322.782 22.059 325.715 25.325 328.469 28.735 C 329.491 29.999 330.457 31.522 330.796 33.07 C 331.214 34.972 330.662 37.079 331.031 39.001 C 332.269 45.463 329.181 49.256 323.235 51.412 C 315.854 48.653 308.889 46.189 301.925 43.726 Z"/><path fill="#0283E7" d="M 319.922 18.337 C 313.759 18.704 307.598 18.673 300.944 18.585 C 300.489 17.04 300.687 15.536 300.54 14.065 C 299.846 7.091 300.563 1.464 307.564 -3.107 C 314.003 -7.31 314.962 -14.826 312.3 -22.706 C 314.069 -22.635 315.911 -22.155 317.754 -21.675 C 318.038 -21.168 318.322 -20.66 318.606 -20.153 C 317.739 -19.783 316.132 -19.427 316.125 -19.042 C 316.079 -16.458 315.363 -12.72 316.75 -11.5 C 320.525 -8.18 325.236 -5.923 329.956 -3.19 C 320.779 2.753 318.136 8.101 319.922 18.337 Z"/><path fill="#05A9F7" d="M 297.905 -6.98 C 292.961 -5.533 289.367 -7.068 286.784 -10.907 C 284.464 -14.354 284.5 -18.327 287.377 -20.981 C 289.676 -23.101 293.321 -24.925 296.313 -24.843 C 300.279 -24.735 303.101 -21.538 303.722 -17.26 C 304.397 -12.604 302.569 -9.173 297.905 -6.98 Z"/><path fill="#075BC6" d="M 389.779 154.262 C 389.426 152.973 389.349 151.166 388.835 149.493 C 388.463 148.28 387.512 147.245 386.819 146.13 C 386.18 147.304 385.371 148.421 384.958 149.67 C 384.662 150.565 384.909 151.635 384.889 152.627 C 384.84 154.991 384.681 156.83 381.228 156.202 C 379.9 155.961 378.203 157.747 376.344 158.675 C 375.973 145.712 375.933 132.683 375.966 119.19 C 376.331 117.993 376.758 117.282 376.889 116.521 C 377.798 111.213 381.313 107.907 386.518 107.936 C 387.309 107.94 388.502 109.29 388.785 110.235 C 389.241 111.757 389.096 113.46 389.447 115.396 C 389.75 128.404 389.808 141.103 389.779 154.262 Z"/><path fill="#046AD7" d="M 301.919 44.193 C 308.889 46.189 315.854 48.653 322.889 51.484 C 322.055 52.761 321.311 54.021 320.219 54.518 C 315.625 56.613 314.214 60.179 314.813 65.322 C 314.144 66.242 313.207 66.644 313.05 67.248 C 311.463 73.363 309.36 74.846 302.274 74.282 C 302.41 70.705 299.761 66.574 305.131 64.201 C 305.609 63.99 305.856 61.537 305.408 61.204 C 299.71 56.971 302.599 50.92 301.918 45.652 C 301.876 45.326 301.914 44.991 301.919 44.193 Z"/><path fill="#0290F3" d="M 336.938 21.007 C 330.892 19.865 328.234 16.721 328.929 12.013 C 329.582 7.597 333.511 4.419 337.637 4.971 C 342.137 5.572 345.466 9.551 344.978 14.04 C 344.493 18.497 341.707 20.67 336.938 21.007 Z"/><path fill="#0283E7" d="M 331.28 -3.128 C 333.861 -5.997 337.162 -6.062 340.784 -3.939 C 337.825 -3.418 334.754 -3.251 331.28 -3.128 Z"/><path fill="#0283E7" d="M 1182.48 -14.163 C 1182.33 -14.934 1182.17 -15.705 1181.9 -16.852 C 1186.96 -16.576 1192.14 -15.699 1197.35 -15.39 C 1199.26 -15.276 1201.26 -16.503 1203.6 -17.177 C 1203.85 -9.192 1203.71 -1.148 1203.42 7.349 C 1202.98 7.798 1202.68 7.787 1201.88 7.528 C 1199.51 5.559 1197.88 3.424 1195.72 2.189 C 1191.51 -0.225 1187.01 -2.137 1182.63 -4.257 C 1182.53 -7.003 1182.42 -9.749 1182.48 -13.033 C 1182.72 -13.802 1182.67 -13.999 1182.48 -14.163 Z"/><path fill="#0473DB" d="M 983.828 24.828 C 984.219 26.096 984.357 27.505 984.544 29.34 C 984.254 28.168 983.915 26.568 983.828 24.828 Z"/><path fill="#046AD7" d="M 1182.49 -3.811 C 1187.01 -2.137 1191.51 -0.225 1195.72 2.189 C 1197.88 3.424 1199.51 5.559 1201.66 7.533 C 1201.92 10.641 1202.67 13.923 1198.2 14.271 C 1197.85 14.298 1197.51 14.927 1197.23 15.323 C 1192.68 21.772 1191.94 21.958 1185.2 18.412 C 1184.63 18.114 1183.97 17.992 1183.03 17.784 C 1182.58 10.732 1182.46 3.684 1182.49 -3.811 Z"/><path fill="#05A9F7" d="M 984.14 -27.756 C 984.384 -25.805 984.491 -23.53 984.52 -20.833 C 984.296 -22.751 984.149 -25.091 984.14 -27.756 Z"/><path fill="#0473DB" d="M 270.516 45.557 C 266.584 47.756 263.042 47.065 261.023 43.879 C 259.749 41.867 259.089 37.835 260.252 36.313 C 261.801 34.288 265.444 32.769 268.092 32.904 C 273.939 33.2 275.275 39.963 270.516 45.557 Z"/></g><g><path d="M 420.77 213.13 L 420.77 199.87 L 415.82 199.87 L 415.82 198.1 L 427.73 198.1 L 427.73 199.87 L 422.76 199.87 L 422.76 213.13 Z M 442.67 213.13 L 442.67 198.1 L 453.54 198.1 L 453.54 199.87 L 444.66 199.87 L 444.66 204.48 L 452.98 204.48 L 452.98 206.24 L 444.66 206.24 L 444.66 211.36 L 453.89 211.36 L 453.89 213.13 Z M 477.72 207.86 L 479.7 208.36 Q 479.08 210.81 477.45 212.1 Q 475.83 213.39 473.48 213.39 Q 471.05 213.39 469.53 212.4 Q 468.01 211.41 467.21 209.53 Q 466.42 207.66 466.42 205.5 Q 466.42 203.15 467.31 201.41 Q 468.21 199.66 469.87 198.75 Q 471.52 197.84 473.51 197.84 Q 475.77 197.84 477.31 198.99 Q 478.84 200.14 479.45 202.22 L 477.49 202.68 Q 476.97 201.04 475.97 200.29 Q 474.98 199.54 473.47 199.54 Q 471.74 199.54 470.57 200.38 Q 469.41 201.21 468.94 202.61 Q 468.47 204.01 468.47 205.49 Q 468.47 207.41 469.03 208.84 Q 469.58 210.27 470.76 210.98 Q 471.94 211.69 473.32 211.69 Q 474.99 211.69 476.15 210.72 Q 477.31 209.76 477.72 207.86 Z M 493.5 213.13 L 493.5 198.1 L 495.49 198.1 L 495.49 204.27 L 503.31 204.27 L 503.31 198.1 L 505.3 198.1 L 505.3 213.13 L 503.31 213.13 L 503.31 206.05 L 495.49 206.05 L 495.49 213.13 Z M 537.14 208.3 L 539.02 208.14 Q 539.15 209.27 539.64 209.99 Q 540.13 210.71 541.15 211.16 Q 542.18 211.6 543.46 211.6 Q 544.6 211.6 545.47 211.26 Q 546.34 210.93 546.76 210.34 Q 547.19 209.75 547.19 209.05 Q 547.19 208.34 546.78 207.81 Q 546.37 207.29 545.43 206.93 Q 544.82 206.69 542.75 206.19 Q 540.68 205.7 539.85 205.26 Q 538.77 204.69 538.24 203.86 Q 537.72 203.02 537.72 201.99 Q 537.72 200.85 538.36 199.86 Q 539.01 198.87 540.25 198.36 Q 541.49 197.84 543.01 197.84 Q 544.68 197.84 545.95 198.38 Q 547.23 198.92 547.92 199.96 Q 548.61 201.01 548.66 202.33 L 546.75 202.48 Q 546.6 201.05 545.71 200.32 Q 544.82 199.6 543.09 199.6 Q 541.28 199.6 540.46 200.26 Q 539.63 200.92 539.63 201.85 Q 539.63 202.66 540.22 203.18 Q 540.79 203.71 543.22 204.26 Q 545.64 204.8 546.54 205.21 Q 547.86 205.82 548.48 206.75 Q 549.11 207.68 549.11 208.89 Q 549.11 210.09 548.42 211.15 Q 547.73 212.21 546.45 212.8 Q 545.16 213.39 543.55 213.39 Q 541.51 213.39 540.13 212.79 Q 538.75 212.2 537.97 211 Q 537.18 209.81 537.14 208.3 Z M 562.26 205.81 Q 562.26 202.07 564.27 199.95 Q 566.28 197.83 569.46 197.83 Q 571.54 197.83 573.21 198.83 Q 574.88 199.82 575.76 201.6 Q 576.64 203.38 576.64 205.64 Q 576.64 207.92 575.71 209.73 Q 574.79 211.53 573.1 212.46 Q 571.41 213.39 569.45 213.39 Q 567.33 213.39 565.65 212.36 Q 563.98 211.34 563.12 209.56 Q 562.26 207.79 562.26 205.81 Z M 564.31 205.84 Q 564.31 208.56 565.77 210.12 Q 567.23 211.69 569.44 211.69 Q 571.68 211.69 573.13 210.11 Q 574.59 208.53 574.59 205.63 Q 574.59 203.79 573.96 202.42 Q 573.34 201.05 572.15 200.3 Q 570.96 199.54 569.47 199.54 Q 567.36 199.54 565.83 201 Q 564.31 202.45 564.31 205.84 Z M 591.83 213.13 L 591.83 198.1 L 593.82 198.1 L 593.82 211.36 L 601.22 211.36 L 601.22 213.13 Z M 625.35 198.1 L 627.34 198.1 L 627.34 206.78 Q 627.34 209.05 626.83 210.38 Q 626.32 211.72 624.98 212.55 Q 623.64 213.39 621.47 213.39 Q 619.36 213.39 618.01 212.66 Q 616.67 211.93 616.1 210.55 Q 615.52 209.17 615.52 206.78 L 615.52 198.1 L 617.51 198.1 L 617.51 206.77 Q 617.51 208.73 617.87 209.66 Q 618.24 210.59 619.13 211.09 Q 620.01 211.59 621.29 211.59 Q 623.49 211.59 624.42 210.6 Q 625.35 209.6 625.35 206.77 Z M 647.5 213.13 L 647.5 199.87 L 642.55 199.87 L 642.55 198.1 L 654.46 198.1 L 654.46 199.87 L 649.49 199.87 L 649.49 213.13 Z M 669.7 213.13 L 669.7 198.1 L 671.69 198.1 L 671.69 213.13 Z M 688.35 205.81 Q 688.35 202.07 690.36 199.95 Q 692.37 197.83 695.55 197.83 Q 697.63 197.83 699.31 198.83 Q 700.98 199.82 701.85 201.6 Q 702.73 203.38 702.73 205.64 Q 702.73 207.92 701.81 209.73 Q 700.88 211.53 699.19 212.46 Q 697.5 213.39 695.54 213.39 Q 693.42 213.39 691.75 212.36 Q 690.08 211.34 689.22 209.56 Q 688.35 207.79 688.35 205.81 Z M 690.4 205.84 Q 690.4 208.56 691.87 210.12 Q 693.33 211.69 695.53 211.69 Q 697.78 211.69 699.23 210.11 Q 700.68 208.53 700.68 205.63 Q 700.68 203.79 700.06 202.42 Q 699.44 201.05 698.24 200.3 Q 697.05 199.54 695.56 199.54 Q 693.45 199.54 691.93 201 Q 690.4 202.45 690.4 205.84 Z M 717.97 213.13 L 717.97 198.1 L 720.01 198.1 L 727.91 209.9 L 727.91 198.1 L 729.81 198.1 L 729.81 213.13 L 727.77 213.13 L 719.88 201.32 L 719.88 213.13 Z M 746.81 208.3 L 748.69 208.14 Q 748.82 209.27 749.31 209.99 Q 749.8 210.71 750.82 211.16 Q 751.85 211.6 753.13 211.6 Q 754.27 211.6 755.14 211.26 Q 756.01 210.93 756.44 210.34 Q 756.86 209.75 756.86 209.05 Q 756.86 208.34 756.45 207.81 Q 756.04 207.29 755.1 206.93 Q 754.49 206.69 752.42 206.19 Q 750.35 205.7 749.52 205.26 Q 748.44 204.69 747.92 203.86 Q 747.39 203.02 747.39 201.99 Q 747.39 200.85 748.03 199.86 Q 748.68 198.87 749.92 198.36 Q 751.16 197.84 752.68 197.84 Q 754.35 197.84 755.63 198.38 Q 756.9 198.92 757.59 199.96 Q 758.28 201.01 758.33 202.33 L 756.42 202.48 Q 756.27 201.05 755.38 200.32 Q 754.49 199.6 752.76 199.6 Q 750.96 199.6 750.13 200.26 Q 749.31 200.92 749.31 201.85 Q 749.31 202.66 749.89 203.18 Q 750.46 203.71 752.89 204.26 Q 755.31 204.8 756.22 205.21 Q 757.53 205.82 758.15 206.75 Q 758.78 207.68 758.78 208.89 Q 758.78 210.09 758.09 211.15 Q 757.41 212.21 756.12 212.8 Q 754.83 213.39 753.22 213.39 Q 751.18 213.39 749.8 212.79 Q 748.42 212.2 747.64 211 Q 746.85 209.81 746.81 208.3 Z" transform="matrix(0.999991, 0.004146, -0.004146, 0.999991, -2.696134, -2.667002)" style="fill: rgb(51, 51, 51); text-wrap-mode: nowrap;"/></g><defs><bx:export><bx:file format="svg" path="LOGOBIT.svg" normalization="{&quot;removeAnimations&quot;:true,&quot;convertTextsToPaths&quot;:true}"/></bx:export></defs></svg>